PathFileType        4      (X/Y/Z)      C:\Users\pc\Desktop\IMUTRC\Sujet_05\Sujet_05_velo_60.trc         
DataRate	CameraRate	NumFrames	NumMarkers	Units	OrigDataRate	OrigDataStartFrame	OrigNumFrames
60.0	60.0	4	64	mm	60.0	484	966
Frame#	Time	pHipOrigin			pRightASI			pLeftASI			pRightCSI			pLeftCSI			pRightIschialTub			pLeftIschialTub			pSacrum			pL5SpinalProcess			pL3SpinalProcess			pT12SpinalProcess			pIJ			pT4SpinalProcess			pT8SpinalProcess			pPX			pC7SpinalProcess			pTopOfHead			pRightAuricularis			pLeftAuricularis			pBackOfHead			pRightAcromion			pLeftAcromion			pRightArmLatEpicondyle			pRightArmMedEpicondyle			pLeftArmLatEpicondyle			pLeftArmMedEpicondyle			pRightUlnarStyloid			pRightRadialStyloid			pRightOlecranon			pLeftUlnarStyloid			pLeftRadialStyloid			pLeftOlecranon			pRightTopOfHand			pRightPinky			pRightBallHand			pLeftTopOfHand			pLeftPinky			pLeftBallHand			pRightGreaterTrochanter			pRightKneeLatEpicondyle			pRightKneeMedEpicondyle			pRightPatella			pLeftGreaterTrochanter			pLeftKneeLatEpicondyle			pLeftKneeMedEpicondyle			pLeftPatella			pRightTibialTub			pRightLatMalleolus			pRightMedMalleolus			pLeftTibialTub			pLeftLatMalleolus			pLeftMedMalleolus			pRightHeelFoot			pRightFirstMetatarsal			pRightFifthMetatarsal			pRightPivotFoot			pRightHeelCenter			pRightToe			pLeftHeelFoot			pLeftFirstMetatarsal			pLeftFifthMetatarsal			pLeftPivotFoot			pLeftHeelCenter			pLeftToe			
		X1	Y1	Z1	X2	Y2	Z2	X3	Y3	Z3	X4	Y4	Z4	X5	Y5	Z5	X6	Y6	Z6	X7	Y7	Z7	X8	Y8	Z8	X9	Y9	Z9	X10	Y10	Z10	X11	Y11	Z11	X12	Y12	Z12	X13	Y13	Z13	X14	Y14	Z14	X15	Y15	Z15	X16	Y16	Z16	X17	Y17	Z17	X18	Y18	Z18	X19	Y19	Z19	X20	Y20	Z20	X21	Y21	Z21	X22	Y22	Z22	X23	Y23	Z23	X24	Y24	Z24	X25	Y25	Z25	X26	Y26	Z26	X27	Y27	Z27	X28	Y28	Z28	X29	Y29	Z29	X30	Y30	Z30	X31	Y31	Z31	X32	Y32	Z32	X33	Y33	Z33	X34	Y34	Z34	X35	Y35	Z35	X36	Y36	Z36	X37	Y37	Z37	X38	Y38	Z38	X39	Y39	Z39	X40	Y40	Z40	X41	Y41	Z41	X42	Y42	Z42	X43	Y43	Z43	X44	Y44	Z44	X45	Y45	Z45	X46	Y46	Z46	X47	Y47	Z47	X48	Y48	Z48	X49	Y49	Z49	X50	Y50	Z50	X51	Y51	Z51	X52	Y52	Z52	X53	Y53	Z53	X54	Y54	Z54	X55	Y55	Z55	X56	Y56	Z56	X57	Y57	Z57	X58	Y58	Z58	X59	Y59	Z59	X60	Y60	Z60	X61	Y61	Z61	X62	Y62	Z62	X63	Y63	Z63	X64	Y64	Z64	
484	8.05	0.0	1249.96063	7.653801422948546E-14	60.48496000000001	1348.01677	121.61930000000008	57.33082999999999	1341.33745	-128.2058499999999	16.42000000000001	1408.31619	99.54043000000009	13.729709999999994	1402.65732	-108.26064999999991	-49.35276	1196.52607	54.08394000000007	-50.65151	1193.74302	-49.81659999999993	-63.08247	1267.49385	0.3710700000000815	-30.52078	1369.35349	-2.6902799999999143	26.0679	1475.85154	-2.5047499999999117	86.18179	1568.43435	-0.7421499999999093	347.13913	1591.16259	6.864860000000077	236.65204	1699.97985	6.21548000000009	160.30369	1648.49342	2.504750000000091	245.8361	1516.57684	1.7626000000000777	287.30355	1732.44877	10.01898000000009	568.20609	1767.79351	-14.193559999999927	477.20035	1730.12957	68.92688000000007	456.51301	1747.10617	-75.04958999999991	451.96736	1793.49034	5.566100000000082	275.05813	1653.87399	201.5856100000001	293.42626	1667.69647	-187.67034999999993	351.49925	1403.02839	181.36211000000006	333.40942	1398.11167	127.09263000000007	380.53574	1425.47833	-194.07136999999994	360.59054	1413.51122	-141.65725999999995	453.54442	1187.342	177.92968000000005	495.47571	1213.4099	184.60900000000007	319.03033	1393.00941	152.69669000000005	479.70509	1208.02934	-209.28537999999995	521.63638	1234.37555	-215.22254999999996	347.2319	1412.02692	-166.14809999999994	508.83435	1125.92936	341.3875	480.72554	1123.14631	259.84412	483.23029	1166.74743	202.04945000000006	597.42812	1161.45963	-351.49925	539.07683	1151.62619	-288.69508	517.55458	1189.56844	-230.80762999999993	35.62304000000001	1236.69476	145.83183000000008	375.71178	1128.52687	86.27456000000004	371.90828	1136.41218	16.32723000000005	383.50432	1170.73647	52.78519000000005	5.102259999999991	1213.4099	-147.9654999999999	205.76018	913.21155	-124.30957999999995	219.4899	921.09686	-55.66099999999996	243.7952	940.57821	-96.47906999999995	415.78771	1100.78914	44.436040000000034	310.95948	739.36368	64.56677000000003	306.22829	742.33227	5.102260000000027	249.26853	875.17653	-94.43816999999996	61.59817999999999	552.80655	-148.61487999999997	63.45354999999999	547.33321	-89.24313999999997	245.5578	673.21985	45.64202000000003	392.78116	621.54789	-12.152649999999987	403.72782	623.8671	65.49445000000001	419.0346	615.61071	22.821010000000015	283.22175	663.57195	40.63253000000003	495.01187	590.09942	12.894800000000005	-22.913780000000006	515.23537	-131.17442999999997	89.05761	405.30488	-75.69896999999997	100.37534999999998	404.84104	-153.34606999999997	110.57986	389.90534	-111.04369999999997	7.235929999999992	490.65176	-126.62878999999997	168.93115	334.70818	-102.23071	
485	8.067	0.0	1249.96063	7.653801422948546E-14	60.670500000000004	1347.46016	121.99037000000008	56.77421999999999	1342.17236	-127.83476999999992	16.42000000000001	1407.75958	100.37535000000008	13.173099999999993	1403.3067	-107.42573999999992	-49.07445	1196.15499	53.89841000000007	-50.65151	1193.92855	-50.002139999999926	-63.08247	1267.30831	0.6493800000000814	-30.70632	1369.26072	-2.0408999999999144	25.60406	1475.85154	-1.7625999999999111	85.53241	1568.61988	-0.2783099999999092	346.39699	1591.90474	6.586550000000076	235.72436	1700.4437	5.84441000000009	159.46878	1648.8645	2.5975100000000912	245.27949	1517.13345	2.040900000000078	286.2831	1733.00538	9.462370000000089	566.81457	1770.20549	-15.677849999999927	476.36543	1731.89216	67.72089000000007	455.12148	1748.59047	-76.16280999999991	450.48307	1794.97464	4.360110000000082	274.8726	1654.89444	201.40007000000008	292.03474	1667.97478	-187.8558899999999	351.22094	1403.86331	181.17657000000005	333.13111	1398.94659	126.99986000000007	379.70082	1425.94217	-194.16413999999995	359.94116	1413.88229	-141.75002999999995	453.08058	1188.08415	177.92968000000005	495.10464	1214.15205	184.60900000000007	318.84479	1393.84433	152.60392000000004	479.24125	1208.67872	-209.37814999999995	521.17254	1235.1177	-215.31531999999996	346.39699	1412.398	-166.24086999999994	508.27774	1126.76427	341.48026	480.16893	1123.88845	259.93689	482.76645	1167.58234	202.04945000000006	597.14981	1162.01624	-351.49925	538.70576	1152.1828	-288.69508	517.1835	1190.21782	-230.80762999999993	35.159200000000006	1234.56109	145.73906000000008	372.27935	1116.93083	86.46009000000004	368.84693	1125.65105	16.605530000000048	381.37065	1159.32596	53.34180000000005	5.937169999999991	1214.33759	-148.0582699999999	215.31532	920.07641	-124.68064999999996	228.58119	928.14725	-56.03207999999996	252.42266	948.46352	-96.66460999999995	413.83957	1090.86293	44.714340000000036	319.12309	726.56165	63.175240000000024	314.57745	729.623	3.7107300000000256	256.50446	881.11371	-95.18031999999995	56.124849999999995	566.53626	-149.26425999999998	58.072979999999994	560.69185	-89.89251999999998	255.39124	658.84076	43.69389000000003	403.82059	611.15783	-14.471859999999987	414.67449	613.0132	63.17524000000001	430.1668	605.49896	20.50180000000001	293.24073	650.2133	38.59163000000002	506.70068	581.75027	10.390050000000006	-29.778640000000006	532.58305	-132.00934999999998	77.27603	417.5503	-77.36879999999996	88.50099999999999	417.17923	-155.01589999999996	98.14891	401.40861	-112.80629999999996	-0.7421500000000077	506.70068	-127.64923999999998	153.99545	343.7067	-104.45715	
486	8.083	0.0	1249.96063	7.653801422948546E-14	60.948800000000006	1346.81078	122.36144000000009	56.124849999999995	1343.10005	-127.46369999999992	16.512760000000007	1407.1102	101.30303000000009	12.430959999999994	1404.04885	-106.59081999999991	-48.70338	1195.69115	53.80564000000007	-50.74428	1194.11409	-50.187669999999926	-63.08247	1267.21554	1.0204500000000813	-30.98463	1369.16795	-1.298759999999914	25.14022	1475.94431	-1.1132199999999113	84.88303	1568.80542	0.2783100000000908	345.74761	1592.73965	6.122710000000076	234.79667	1701.09307	5.4733300000000895	158.63386	1649.23557	2.690280000000091	244.81565	1517.69006	2.3192100000000777	285.16988	1733.65476	8.720220000000088	565.33027	1772.803	-17.347679999999926	475.43775	1733.8403	66.42213000000007	453.63719	1750.07476	-77.46155999999992	448.81324	1796.64447	2.9685900000000824	274.77983	1656.00766	201.21453000000008	290.45768	1668.16031	-188.2269599999999	350.94264	1404.69822	181.08380000000005	332.76004	1399.7815	126.90709000000007	378.68037	1426.31325	-194.34967999999995	359.01348	1414.25336	-141.84278999999995	452.4312	1188.82629	178.02245000000005	494.45526	1214.8942	184.60900000000007	318.47372	1394.77201	152.41838000000007	478.77741	1209.23533	-209.37814999999995	520.61593	1235.76707	-215.31531999999996	345.56207	1412.76907	-166.33363999999995	507.5356	1127.59919	341.57303	479.51956	1124.72337	260.02966	482.11707	1168.32449	202.14222000000007	596.68597	1162.57285	-351.40648	538.33468	1152.73941	-288.60231	516.62689	1190.77443	-230.80762999999993	34.69536000000001	1232.24188	145.73906000000008	367.7337	1103.66496	86.73840000000004	364.95065	1113.12733	16.976610000000047	378.49483	1145.96732	54.08394000000005	6.679319999999991	1215.26527	-148.1510399999999	225.056	927.59064	-125.14448999999996	238.04356	936.03256	-56.403149999999954	261.23565	957.09098	-97.12844999999996	410.96375	1079.08135	45.363720000000036	325.70965	712.27532	62.15479000000002	321.53507	715.42945	2.7830500000000242	264.11147	887.88579	-96.01522999999996	51.76472999999999	581.28643	-149.72809999999998	53.89840999999999	575.16372	-90.44912999999997	263.46209	643.53398	42.02406000000003	412.81912	599.00518	-16.32722999999999	423.58025	600.3967	61.31987000000001	439.2581	593.53185	18.553670000000007	301.40434	635.55591	36.92180000000001	516.16305	571.36021	8.349150000000003	-35.34474000000001	550.95118	-132.65872999999996	66.88597	431.09448	-78.94585999999997	78.11093999999999	430.81618	-156.50018999999998	87.0167	414.39618	-114.47612999999997	-7.328700000000008	523.86282	-128.57691999999997	140.45127	354.46783	-106.59081999999998	
487	8.1	0.0	1249.96063	7.653801422948546E-14	61.41264000000001	1346.1614	122.63975000000009	55.38269999999999	1343.93496	-127.18539999999992	16.698300000000007	1406.55359	102.23071000000009	11.688809999999993	1404.69822	-105.66313999999991	-48.42507	1195.32008	53.62010000000007	-50.92982	1194.39239	-50.28043999999993	-63.17524	1267.12277	1.3915300000000812	-31.17016	1369.16795	-0.5566099999999143	24.67638	1476.03708	-0.27830999999991113	84.23365	1568.99096	0.7421500000000909	345.09823	1593.57457	5.473330000000076	233.86899	1701.64968	4.82395000000009	157.89172	1649.60665	2.5975100000000912	244.25904	1518.24667	2.3192100000000777	284.14943	1734.39691	7.792540000000089	563.84598	1775.40052	-19.295809999999925	474.51007	1735.8812	64.84507000000008	452.24566	1751.55905	-79.03862999999991	447.14341	1798.22153	1.3915300000000828	274.8726	1657.21365	200.75069000000008	288.88061	1668.25308	-188.7835699999999	350.66433	1405.53314	180.89827000000005	332.2962	1400.52365	126.81432000000007	377.56715	1426.59155	-194.53520999999995	358.17857	1414.62444	-141.93555999999995	451.78182	1189.47567	178.02245000000005	493.80588	1215.45081	184.70177000000007	318.10264	1395.60693	152.32562000000004	478.12803	1209.69917	-209.37814999999995	519.96655	1236.32368	-215.31531999999996	344.54162	1413.04737	-166.51916999999995	506.70068	1128.24857	341.6658	478.68464	1125.37275	260.12243	481.46769	1168.8811	202.14222000000007	596.22213	1162.94393	-351.22094	537.77807	1153.20325	-288.50954	515.97751	1191.33104	-230.71485999999993	34.04598000000001	1229.8299	145.73906000000008	362.1676	1089.10033	86.73840000000004	360.1267	1099.30484	17.069370000000045	374.69133	1131.21715	54.54778000000005	7.3286999999999916	1216.28572	-148.2438099999999	234.88944	935.84703	-125.79386999999996	247.50593	944.47448	-56.95975999999996	270.14141	966.46058	-97.59229999999995	406.88194	1065.90824	45.73479000000003	330.5336	697.15408	61.412640000000025	326.63733	700.30821	1.9481400000000229	271.90401	895.4928	-96.85014999999996	48.51783999999999	596.5932	-150.28470999999996	50.83704999999999	590.28496	-91.00573999999996	269.39926	627.39229	40.53977000000002	419.49844	585.64654	-18.08982999999999	430.1668	586.48145	59.557280000000006	445.93742	580.26597	16.79107000000001	307.52705	620.06359	35.344740000000016	523.21344	559.30033	6.401020000000003	-39.333780000000004	569.41208	-133.40086999999997	58.53681999999999	445.65911	-80.43014999999997	69.66901999999999	445.47357	-158.07724999999996	78.01817999999999	428.4042	-116.14595999999997	-12.430960000000008	541.30327	-129.41183999999998	129.31907	366.52772	-108.53895999999999	
